<svg width="45" height="45" viewBox="0 0 45 45" fill="none" xmlns="http://www.w3.org/2000/svg">
<rect width="45" height="45" rx="22.5" fill="#4D5756"/>
<path d="M22.6863 17.8066C24.7781 17.8066 26.5047 19.5332 26.5047 21.625C26.5047 23.75 24.7781 25.4434 22.6863 25.4434C20.5613 25.4434 18.868 23.75 18.868 21.625C18.868 19.5332 20.5613 17.8066 22.6863 17.8066ZM22.6863 24.1152C24.0476 24.1152 25.1434 23.0195 25.1434 21.625C25.1434 20.2637 24.0476 19.168 22.6863 19.168C21.2918 19.168 20.1961 20.2637 20.1961 21.625C20.1961 23.0195 21.325 24.1152 22.6863 24.1152ZM27.534 17.6738C27.534 18.1719 27.1355 18.5703 26.6375 18.5703C26.1394 18.5703 25.741 18.1719 25.741 17.6738C25.741 17.1758 26.1394 16.7773 26.6375 16.7773C27.1355 16.7773 27.534 17.1758 27.534 17.6738ZM30.0574 18.5703C30.1238 19.7988 30.1238 23.4844 30.0574 24.7129C29.991 25.9082 29.7254 26.9375 28.8621 27.834C27.9988 28.6973 26.9363 28.9629 25.741 29.0293C24.5125 29.0957 20.8269 29.0957 19.5984 29.0293C18.4031 28.9629 17.3738 28.6973 16.4773 27.834C15.6141 26.9375 15.3484 25.9082 15.282 24.7129C15.2156 23.4844 15.2156 19.7988 15.282 18.5703C15.3484 17.375 15.6141 16.3125 16.4773 15.4492C17.3738 14.5859 18.4031 14.3203 19.5984 14.2539C20.8269 14.1875 24.5125 14.1875 25.741 14.2539C26.9363 14.3203 27.9988 14.5859 28.8621 15.4492C29.7254 16.3125 29.991 17.375 30.0574 18.5703ZM28.4637 26.0078C28.8621 25.0449 28.7625 22.7207 28.7625 21.625C28.7625 20.5625 28.8621 18.2383 28.4637 17.2422C28.198 16.6113 27.7 16.0801 27.0691 15.8477C26.073 15.4492 23.7488 15.5488 22.6863 15.5488C21.5906 15.5488 19.2664 15.4492 18.3035 15.8477C17.6394 16.1133 17.1414 16.6113 16.8758 17.2422C16.4773 18.2383 16.5769 20.5625 16.5769 21.625C16.5769 22.7207 16.4773 25.0449 16.8758 26.0078C17.1414 26.6719 17.6394 27.1699 18.3035 27.4355C19.2664 27.834 21.5906 27.7344 22.6863 27.7344C23.7488 27.7344 26.073 27.834 27.0691 27.4355C27.7 27.1699 28.2312 26.6719 28.4637 26.0078Z" fill="#00BEAE"/>
<a href="https://www.figma.com/design/Nx4sNsAeWJfmVVOXuDSmxJ?node-id=2-2093">
<rect fill="black" fill-opacity="0" x="0.18925" y="-1.275" width="14.875" height="19.55"/>
</a>
</svg>
