<svg width="78" height="78" viewBox="0 0 78 78" fill="none" xmlns="http://www.w3.org/2000/svg">
<rect width="78" height="78" rx="39" fill="white"/>
<path d="M51.5305 42.94C51.9527 42.4334 52.2905 41.8423 52.5438 41.1667C52.7972 40.4911 52.9238 39.8156 52.9238 39.14C52.9238 38.0423 52.5438 37.1134 51.7838 36.3534C51.0238 35.5934 50.095 35.2134 48.9972 35.2134C47.8994 35.2134 46.9705 35.5934 46.2105 36.3534C45.4505 37.1134 45.0705 38.0634 45.0705 39.2034C45.0705 40.3434 45.3661 41.3778 45.9572 42.3067L46.3372 42.94C45.4083 42.94 44.5638 43.2356 43.8038 43.8267C43.4661 43.7423 43.1283 43.7 42.7905 43.7H42.1572C42.5794 43.3623 42.9172 42.94 43.1705 42.4334C44.015 41.0823 44.4372 39.52 44.4372 37.7467C44.4372 36.8178 44.205 35.9311 43.7405 35.0867C43.2761 34.2423 42.6216 33.5667 41.7772 33.06C40.9327 32.5534 40.0038 32.3 38.9905 32.3C37.9772 32.3 37.0483 32.5534 36.2038 33.06C35.3594 33.5667 34.705 34.2423 34.2405 35.0867C33.7761 35.9311 33.5438 36.8178 33.5438 37.7467C33.5438 39.52 33.9661 41.0823 34.8105 42.4334C35.0638 42.8556 35.4016 43.2778 35.8238 43.7H35.1905C34.8527 43.7 34.515 43.7423 34.1772 43.8267C33.4172 43.2356 32.5727 42.94 31.6438 42.94L32.0238 42.3067C32.615 41.3778 32.9105 40.3434 32.9105 39.2034C32.9105 38.0634 32.5305 37.1134 31.7705 36.3534C31.0105 35.5934 30.0816 35.2134 28.9838 35.2134C27.8861 35.2134 26.9572 35.5934 26.1972 36.3534C25.4372 37.1134 25.0572 38.0423 25.0572 39.14C25.0572 39.8156 25.1838 40.4911 25.4372 41.1667C25.6905 41.8423 26.0283 42.4334 26.4505 42.94C25.2683 42.94 24.2761 43.32 23.4738 44.08C22.6716 44.84 22.2705 45.7689 22.2705 46.8667V51.4267C22.2705 51.5956 22.3127 51.7434 22.3972 51.87C22.4816 51.9967 22.6083 52.06 22.7772 52.06H29.3638V55.86C29.3638 56.0289 29.4272 56.1556 29.5538 56.24C29.6805 56.3245 29.8283 56.3667 29.9972 56.3667H47.9838C48.1527 56.3667 48.3005 56.3245 48.4272 56.24C48.5538 56.1556 48.6172 56.0289 48.6172 55.86V52.06H55.2038C55.3727 52.06 55.4994 51.9967 55.5838 51.87C55.6683 51.7434 55.7105 51.5956 55.7105 51.4267V46.8667C55.7105 45.7689 55.3094 44.84 54.5072 44.08C53.705 43.32 52.7127 42.94 51.5305 42.94ZM46.2105 39.14C46.2105 38.38 46.485 37.7256 47.0338 37.1767C47.5827 36.6278 48.2372 36.3534 48.9972 36.3534C49.7572 36.3534 50.4116 36.6278 50.9605 37.1767C51.5094 37.7256 51.7838 38.4223 51.7838 39.2667C51.7838 40.1111 51.5727 40.8711 51.1505 41.5467C50.6438 42.4756 49.9261 42.94 48.9972 42.94C48.0683 42.94 47.3505 42.4756 46.8438 41.5467C46.4216 40.8711 46.2105 40.0689 46.2105 39.14ZM38.9905 33.5667C40.1727 33.5667 41.1861 33.9678 42.0305 34.77C42.875 35.5723 43.2972 36.5645 43.2972 37.7467V37.8734C42.3683 37.7889 41.5661 37.62 40.8905 37.3667C40.0461 37.0289 39.1594 36.5223 38.2305 35.8467C38.0616 35.6778 37.8505 35.6778 37.5972 35.8467L34.6838 37.4934C34.7683 36.3956 35.2327 35.4667 36.0772 34.7067C36.9216 33.9467 37.8927 33.5667 38.9905 33.5667ZM35.8238 41.8C35.3172 40.9556 34.9794 39.9845 34.8105 38.8867L37.8505 36.9867C38.7794 37.6623 39.7083 38.1689 40.6372 38.5067C41.3127 38.76 42.1572 38.9711 43.1705 39.14C43.0016 40.1534 42.6638 41.04 42.1572 41.8C41.3972 43.0667 40.3416 43.7 38.9905 43.7C37.6394 43.7 36.5838 43.0667 35.8238 41.8ZM26.1972 39.14C26.1972 38.38 26.4716 37.7256 27.0205 37.1767C27.5694 36.6278 28.2238 36.3534 28.9838 36.3534C29.7438 36.3534 30.3983 36.6278 30.9472 37.1767C31.4961 37.7256 31.7705 38.4223 31.7705 39.2667C31.7705 40.1111 31.5594 40.8711 31.1372 41.5467C30.6305 42.4756 29.9127 42.94 28.9838 42.94C28.055 42.94 27.3372 42.4756 26.8305 41.5467C26.4083 40.8711 26.1972 40.0689 26.1972 39.14ZM23.4105 50.92V46.8667C23.4105 46.1067 23.7061 45.4734 24.2972 44.9667C24.8883 44.46 25.6061 44.2067 26.4505 44.2067H31.6438C31.9816 44.2067 32.2772 44.2489 32.5305 44.3334C31.6016 44.7556 30.8416 45.41 30.2505 46.2967C29.6594 47.1834 29.3638 48.1334 29.3638 49.1467V50.92H23.4105ZM47.4772 55.2267H44.4372V51.5534C44.4372 51.3845 44.3738 51.2367 44.2472 51.11C44.1205 50.9834 43.9727 50.92 43.8038 50.92C43.635 50.92 43.5083 50.9834 43.4238 51.11C43.3394 51.2367 43.2972 51.3845 43.2972 51.5534V55.2267H34.6838V51.5534C34.6838 51.3845 34.6416 51.2367 34.5572 51.11C34.4727 50.9834 34.3461 50.92 34.1772 50.92C34.0083 50.92 33.8605 50.9834 33.7338 51.11C33.6072 51.2367 33.5438 51.3845 33.5438 51.5534V55.2267H30.5038V49.1467C30.5038 47.9645 30.9683 46.9511 31.8972 46.1067C32.8261 45.2623 33.9238 44.84 35.1905 44.84H42.7905C44.0572 44.84 45.155 45.2623 46.0838 46.1067C47.0127 46.9511 47.4772 47.9645 47.4772 49.1467V55.2267ZM54.5705 50.92H48.6172V49.1467C48.6172 48.1334 48.3216 47.1834 47.7305 46.2967C47.1394 45.41 46.3794 44.7556 45.4505 44.3334C45.7038 44.2489 45.9994 44.2067 46.3372 44.2067H51.5305C52.375 44.2067 53.0927 44.46 53.6838 44.9667C54.275 45.4734 54.5705 46.1067 54.5705 46.8667V50.92ZM35.6972 26.7267L35.1905 29.8934C35.1905 30.1467 35.275 30.3367 35.4438 30.4634C35.6127 30.59 35.8238 30.6111 36.0772 30.5267L38.9905 29.0067L41.9038 30.5267C42.1572 30.6111 42.3683 30.59 42.5372 30.4634C42.7061 30.3367 42.7905 30.1467 42.7905 29.8934L42.2838 26.7267L44.5638 24.32C44.7327 24.1511 44.775 23.9611 44.6905 23.75C44.6061 23.5389 44.4372 23.3911 44.1838 23.3067L41.0172 22.8L39.4972 19.8867C39.4127 19.7178 39.2438 19.6334 38.9905 19.6334C38.7372 19.6334 38.5683 19.7178 38.4838 19.8867L36.9638 22.8L33.7972 23.3067C33.5438 23.3911 33.375 23.5389 33.2905 23.75C33.2061 23.9611 33.2483 24.1511 33.4172 24.32L35.6972 26.7267ZM37.4705 23.94C37.6394 23.8556 37.7661 23.7289 37.8505 23.56L38.9905 21.4067L40.1305 23.56C40.215 23.7289 40.3416 23.8556 40.5105 23.94L42.9172 24.32L41.2705 26.0934C41.1016 26.1778 41.0172 26.3467 41.0172 26.6L41.3972 28.88L39.2438 27.8667C39.075 27.7823 38.9061 27.7823 38.7372 27.8667L36.5838 28.88L36.9638 26.6C36.9638 26.3467 36.8794 26.1778 36.7105 26.0934L35.0638 24.32L37.4705 23.94ZM24.6772 27.6134L24.2972 29.8934C24.2972 30.1467 24.4027 30.3367 24.6138 30.4634C24.825 30.59 25.015 30.6111 25.1838 30.5267L27.2105 29.5134L29.2372 30.5267C29.4061 30.6111 29.5961 30.59 29.8072 30.4634C30.0183 30.3367 30.1238 30.1467 30.1238 29.8934L29.7438 27.6134L31.2638 26.0934C31.4327 25.9245 31.4961 25.7134 31.4538 25.46C31.4116 25.2067 31.2638 25.08 31.0105 25.08L28.7305 24.7L27.7172 22.6734C27.6327 22.5045 27.4638 22.42 27.2105 22.42C26.9572 22.42 26.7883 22.5045 26.7038 22.6734L25.6905 24.7L23.4105 25.08C23.1572 25.08 23.0094 25.2067 22.9672 25.46C22.925 25.7134 22.9883 25.9245 23.1572 26.0934L24.6772 27.6134ZM26.0705 25.84C26.3238 25.7556 26.4927 25.6289 26.5772 25.46L27.2105 24.1934L27.8438 25.46C27.9283 25.6289 28.055 25.7556 28.2238 25.84L29.6172 26.0934L28.7305 27.1067C28.5616 27.1911 28.4772 27.3178 28.4772 27.4867L28.7305 28.88L27.4638 28.3734C27.295 28.2889 27.1261 28.2889 26.9572 28.3734L25.6905 28.88L25.9438 27.4867C25.9438 27.3178 25.8594 27.1911 25.6905 27.1067L24.8038 26.0934L26.0705 25.84ZM48.2372 27.6134L47.8572 29.8934C47.8572 30.1467 47.9627 30.3367 48.1738 30.4634C48.385 30.59 48.575 30.6111 48.7438 30.5267L50.7705 29.5134L52.7972 30.5267C52.9661 30.6111 53.1561 30.59 53.3672 30.4634C53.5783 30.3367 53.6838 30.1467 53.6838 29.8934L53.3038 27.6134L54.8238 26.0934C54.9927 25.9245 55.0561 25.7134 55.0138 25.46C54.9716 25.2067 54.8238 25.08 54.5705 25.08L52.2905 24.7L51.2772 22.6734C51.1927 22.5045 51.0238 22.42 50.7705 22.42C50.5172 22.42 50.3483 22.5045 50.2638 22.6734L49.2505 24.7L46.9705 25.08C46.7172 25.08 46.5694 25.2067 46.5272 25.46C46.485 25.7134 46.5483 25.9245 46.7172 26.0934L48.2372 27.6134ZM49.7572 25.84C49.9261 25.7556 50.0527 25.6289 50.1372 25.46L50.7705 24.1934L51.4038 25.46C51.4883 25.6289 51.6572 25.7556 51.9105 25.84L53.1772 26.0934L52.2905 27.1067C52.1216 27.1911 52.0372 27.3178 52.0372 27.4867L52.2905 28.88L51.0238 28.3734C50.855 28.2889 50.6861 28.2889 50.5172 28.3734L49.2505 28.88L49.5038 27.4867C49.5038 27.3178 49.4194 27.1911 49.2505 27.1067L48.3638 26.0934L49.7572 25.84Z" fill="#0E2A46"/>
</svg>
