<svg width="78" height="78" viewBox="0 0 78 78" fill="none" xmlns="http://www.w3.org/2000/svg">
<rect width="78" height="78" rx="39" fill="white"/>
<path d="M56.8507 25.3333H54.064V23.94C54.064 23.7711 54.0007 23.6233 53.874 23.4967C53.7474 23.37 53.5996 23.3067 53.4307 23.3067C50.644 23.3067 48.364 23.4333 46.5907 23.6867C45.1551 23.8556 43.5085 24.1933 41.6507 24.7V24.5733C41.6507 23.8133 41.3974 23.18 40.8907 22.6733C40.384 22.1667 39.7507 21.9133 38.9907 21.9133C38.2307 21.9133 37.5974 22.1667 37.0907 22.6733C36.584 23.18 36.3307 23.8133 36.3307 24.5733V24.7C34.4729 24.1933 32.8262 23.8556 31.3907 23.6867C29.6174 23.4333 27.3374 23.3067 24.5507 23.3067C24.3818 23.3067 24.234 23.37 24.1074 23.4967C23.9807 23.6233 23.9174 23.7711 23.9174 23.94V25.3333H21.1307C20.9618 25.3333 20.8351 25.3967 20.7507 25.5233C20.6662 25.65 20.624 25.7978 20.624 25.9667V51.5533C20.624 51.7222 20.6662 51.87 20.7507 51.9967C20.8351 52.1233 20.9618 52.1867 21.1307 52.1867H35.824C35.824 52.7778 36.014 53.2422 36.394 53.58C36.774 53.9178 37.2174 54.0867 37.724 54.0867H40.2574C40.8485 54.0867 41.3129 53.9178 41.6507 53.58C41.9885 53.2422 42.1574 52.7778 42.1574 52.1867H56.8507C57.0196 52.1867 57.1462 52.1233 57.2307 51.9967C57.3151 51.87 57.3574 51.7222 57.3574 51.5533V25.9667C57.3574 25.7978 57.3151 25.65 57.2307 25.5233C57.1462 25.3967 57.0196 25.3333 56.8507 25.3333ZM52.924 24.4467V48.1333C47.1818 48.1333 42.7485 48.8933 39.624 50.4133V42.56H51.1507C51.404 42.56 51.5729 42.4967 51.6574 42.37C51.7418 42.2433 51.784 42.0956 51.784 41.9267C51.6996 40.9978 51.404 40.1956 50.8974 39.52C50.3907 38.8444 49.7574 38.3378 48.9974 38C49.504 37.4933 49.7574 36.8811 49.7574 36.1633C49.7574 35.4456 49.504 34.8122 48.9974 34.2633C48.4907 33.7144 47.8574 33.44 47.0974 33.44L46.5907 33.5667C46.084 32.9756 45.4929 32.5533 44.8174 32.3C45.4085 31.7089 45.704 31.0544 45.704 30.3367C45.704 29.6189 45.4296 28.9856 44.8807 28.4367C44.3318 27.8878 43.6774 27.6133 42.9174 27.6133L42.5374 27.74C42.1151 27.1489 41.5662 26.7267 40.8907 26.4733L41.2707 25.9667C43.2974 25.46 44.944 25.08 46.2107 24.8267C47.984 24.6578 50.2218 24.5311 52.924 24.4467ZM34.684 40.0267C34.1774 39.0978 33.4596 38.4222 32.5307 38C32.8685 37.6622 33.0796 37.24 33.164 36.7333H36.204C36.2885 37.24 36.5418 37.6622 36.964 38C35.9507 38.4222 35.1907 39.0978 34.684 40.0267ZM29.1107 36.1C29.1107 35.6778 29.2585 35.34 29.554 35.0867C29.8496 34.8333 30.2085 34.7067 30.6307 34.7067C31.0529 34.7067 31.4118 34.8333 31.7074 35.0867C32.0029 35.34 32.1507 35.6778 32.1507 36.1C32.1507 36.5222 32.0029 36.8811 31.7074 37.1767C31.4118 37.4722 31.0529 37.62 30.6307 37.62C30.2085 37.62 29.8496 37.4722 29.554 37.1767C29.2585 36.8811 29.1107 36.5222 29.1107 36.1ZM33.164 30.4C33.164 29.9778 33.3118 29.6189 33.6074 29.3233C33.9029 29.0278 34.2618 28.88 34.684 28.88C35.1062 28.88 35.4651 29.0278 35.7607 29.3233C36.0562 29.6189 36.204 29.9778 36.204 30.4C36.204 30.8222 36.0562 31.16 35.7607 31.4133C35.4651 31.6667 35.1062 31.7933 34.684 31.7933C34.2618 31.7933 33.9029 31.6667 33.6074 31.4133C33.3118 31.16 33.164 30.8222 33.164 30.4ZM38.9907 27.2333C39.9196 27.2333 40.7218 27.5289 41.3974 28.12C40.8062 28.5422 40.4685 29.0911 40.384 29.7667H37.344C37.1751 29.1756 36.8796 28.6689 36.4574 28.2467C37.1329 27.5711 37.9774 27.2333 38.9907 27.2333ZM42.9174 40.0267C42.4107 39.0978 41.6929 38.4222 40.764 38C41.1018 37.6622 41.3551 37.24 41.524 36.7333H44.4374C44.6062 37.24 44.8596 37.6622 45.1974 38C44.184 38.4222 43.424 39.0978 42.9174 40.0267ZM38.864 37.62C38.4418 37.62 38.0829 37.4722 37.7874 37.1767C37.4918 36.8811 37.344 36.5222 37.344 36.1C37.344 35.6778 37.4918 35.34 37.7874 35.0867C38.0829 34.8333 38.4418 34.7067 38.864 34.7067C39.2862 34.7067 39.6451 34.8333 39.9407 35.0867C40.2362 35.34 40.384 35.6778 40.384 36.1C40.384 36.5222 40.2362 36.8811 39.9407 37.1767C39.6451 37.4722 39.2862 37.62 38.864 37.62ZM36.584 32.3C37.0062 31.8778 37.2596 31.4133 37.344 30.9067H38.3574V33.44V33.5667C37.8507 32.9756 37.2596 32.5533 36.584 32.3ZM40.384 30.9067C40.4685 31.4133 40.6796 31.8778 41.0174 32.3C40.5107 32.5533 40.0462 32.8911 39.624 33.3133V30.9067H40.384ZM47.0974 38.8867C47.8574 38.8867 48.554 39.1189 49.1874 39.5833C49.8207 40.0478 50.264 40.6178 50.5174 41.2933H43.6774C43.9307 40.6178 44.374 40.0478 45.0074 39.5833C45.6407 39.1189 46.3374 38.8867 47.0974 38.8867ZM47.0974 37.62C46.6751 37.62 46.3162 37.4722 46.0207 37.1767C45.7251 36.8811 45.5774 36.5222 45.5774 36.1C45.5774 35.6778 45.7251 35.34 46.0207 35.0867C46.3162 34.8333 46.6751 34.7067 47.0974 34.7067C47.5196 34.7067 47.8785 34.8333 48.174 35.0867C48.4696 35.34 48.6174 35.6778 48.6174 36.1C48.6174 36.5222 48.4696 36.8811 48.174 37.1767C47.8785 37.4722 47.5196 37.62 47.0974 37.62ZM44.4374 35.5933H41.524C41.3551 34.9178 41.0174 34.4111 40.5107 34.0733C41.1862 33.3978 42.0096 33.06 42.9807 33.06C43.9518 33.06 44.7751 33.3978 45.4507 34.0733C44.944 34.4111 44.6062 34.9178 44.4374 35.5933ZM42.9174 31.7933C42.4951 31.7933 42.1362 31.6667 41.8407 31.4133C41.5451 31.16 41.3974 30.8222 41.3974 30.4C41.3974 29.9778 41.5451 29.6189 41.8407 29.3233C42.1362 29.0278 42.4951 28.88 42.9174 28.88C43.3396 28.88 43.6985 29.0278 43.994 29.3233C44.2896 29.6189 44.4374 29.9778 44.4374 30.4C44.4374 30.8222 44.2896 31.16 43.994 31.4133C43.6985 31.6667 43.3396 31.7933 42.9174 31.7933ZM37.2174 34.0733C36.7107 34.4111 36.3729 34.9178 36.204 35.5933H33.164C33.0796 34.9178 32.784 34.4111 32.2774 34.0733C32.9529 33.3978 33.7762 33.06 34.7474 33.06C35.7185 33.06 36.5418 33.3978 37.2174 34.0733ZM30.6307 38.8867C31.3907 38.8867 32.0874 39.1189 32.7207 39.5833C33.354 40.0478 33.7974 40.6178 34.0507 41.2933H27.2107C27.464 40.6178 27.8862 40.0478 28.4774 39.5833C29.0685 39.1189 29.7862 38.8867 30.6307 38.8867ZM38.864 38.8867C39.624 38.8867 40.3207 39.1189 40.954 39.5833C41.5874 40.0478 42.0307 40.6178 42.284 41.2933H35.444C35.6974 40.6178 36.1196 40.0478 36.7107 39.5833C37.3018 39.1189 38.0196 38.8867 38.864 38.8867ZM38.9907 23.0533C39.4129 23.0533 39.7718 23.2011 40.0674 23.4967C40.3629 23.7922 40.5107 24.1511 40.5107 24.5733C40.5107 24.9956 40.3629 25.3544 40.0674 25.65C39.7718 25.9456 39.4129 26.0933 38.9907 26.0933C38.5685 26.0933 38.2096 25.9456 37.914 25.65C37.6185 25.3544 37.4707 24.9956 37.4707 24.5733C37.4707 24.1511 37.6185 23.7922 37.914 23.4967C38.2096 23.2011 38.5685 23.0533 38.9907 23.0533ZM25.0574 24.4467C27.7596 24.5311 29.9974 24.6578 31.7707 24.8267C33.0374 25.08 34.684 25.46 36.7107 25.9667L37.0907 26.4733C36.4151 26.7267 35.824 27.1489 35.3174 27.74C35.1485 27.6556 34.9374 27.6133 34.684 27.6133C33.924 27.6133 33.2907 27.8878 32.784 28.4367C32.2774 28.9856 32.024 29.6189 32.024 30.3367C32.024 31.0544 32.2774 31.7089 32.784 32.3C32.1085 32.5533 31.5596 32.9756 31.1374 33.5667L30.6307 33.44C29.8707 33.44 29.2162 33.7144 28.6674 34.2633C28.1185 34.8122 27.844 35.4456 27.844 36.1633C27.844 36.8811 28.1396 37.4933 28.7307 38C27.9707 38.3378 27.3374 38.8444 26.8307 39.52C26.324 40.1956 25.9862 40.9978 25.8174 41.9267C25.8174 42.0956 25.8807 42.2433 26.0074 42.37C26.134 42.4967 26.2818 42.56 26.4507 42.56H38.3574V50.4133C35.2329 48.8933 30.7996 48.1333 25.0574 48.1333V24.4467ZM56.2174 51.0467H41.6507C41.4818 51.0467 41.334 51.11 41.2074 51.2367C41.0807 51.3633 41.0174 51.4689 41.0174 51.5533V52.1867C41.0174 52.44 40.954 52.63 40.8274 52.7567C40.7007 52.8833 40.5107 52.9467 40.2574 52.9467H37.724C37.5551 52.9467 37.3862 52.8833 37.2174 52.7567C37.0485 52.63 36.964 52.44 36.964 52.1867V51.5533C36.964 51.4689 36.9007 51.3633 36.774 51.2367C36.6474 51.11 36.5418 51.0467 36.4574 51.0467H21.764V26.6H23.9174V48.64C23.9174 48.8089 23.9807 48.9567 24.1074 49.0833C24.234 49.21 24.3818 49.2733 24.5507 49.2733C30.884 49.2733 35.6129 50.16 38.7374 51.9333C38.8218 52.0178 38.9062 52.06 38.9907 52.06C39.0751 52.06 39.1596 52.0178 39.244 51.9333C42.3685 50.16 47.0974 49.2733 53.4307 49.2733C53.5996 49.2733 53.7474 49.21 53.874 49.0833C54.0007 48.9567 54.064 48.8089 54.064 48.64V26.6H56.2174V51.0467ZM51.024 44.5867C51.024 44.7556 50.9607 44.9033 50.834 45.03C50.7074 45.1567 50.5596 45.22 50.3907 45.22C47.1818 45.3889 44.4796 45.8111 42.284 46.4867H42.0307C41.7774 46.4867 41.6085 46.3811 41.524 46.17C41.4396 45.9589 41.4396 45.79 41.524 45.6633C41.6085 45.5367 41.7351 45.4311 41.904 45.3467C44.2685 44.6711 47.0974 44.2489 50.3907 44.08C50.5596 44.08 50.6862 44.1222 50.7707 44.2067C50.8551 44.2911 50.9396 44.4178 51.024 44.5867ZM36.4574 46.1067C36.3729 46.36 36.204 46.4867 35.9507 46.4867H35.6974C33.5018 45.8111 30.7996 45.3889 27.5907 45.22C27.4218 45.22 27.274 45.1567 27.1474 45.03C27.0207 44.9033 26.9785 44.7556 27.0207 44.5867C27.0629 44.4178 27.1262 44.2911 27.2107 44.2067C27.2951 44.1222 27.4218 44.08 27.5907 44.08C30.884 44.2489 33.7129 44.6711 36.0774 45.3467C36.2462 45.4311 36.3729 45.5367 36.4574 45.6633C36.5418 45.79 36.5418 45.9378 36.4574 46.1067Z" fill="#0E2A46"/>
</svg>
