<svg width="78" height="78" viewBox="0 0 78 78" fill="none" xmlns="http://www.w3.org/2000/svg">
<rect width="78" height="78" rx="39" fill="white"/>
<path d="M52.6705 54.34C52.1639 51.8067 51.6994 49.4844 51.2772 47.3733L51.0239 46.2333C50.7705 45.0511 50.1372 44.2067 49.1239 43.7C48.8705 43.5311 48.6172 43.4044 48.3639 43.32L44.0572 41.8L42.6639 40.9133V39.7733C43.6772 39.1822 44.4794 38.4011 45.0705 37.43C45.6617 36.4589 46.0417 35.4244 46.2105 34.3267C47.055 34.3267 47.7094 34.01 48.1739 33.3767C48.6383 32.7433 48.7017 32.0467 48.3639 31.2867V26.8533C48.3639 25.4178 48.0261 24.2356 47.3505 23.3067C47.0128 22.8 46.5483 22.42 45.9572 22.1667C44.6905 20.5622 42.9594 19.57 40.7639 19.19C38.5683 18.81 36.4994 19.0844 34.5572 20.0133C33.9661 20.3511 33.375 20.7733 32.7839 21.28C32.6994 21.3644 32.6361 21.4911 32.5939 21.66C32.5517 21.8289 32.5939 21.9556 32.7205 22.04C32.8472 22.1244 32.9739 22.1878 33.1005 22.23C33.2272 22.2722 33.375 22.2089 33.5439 22.04C34.7261 21.1111 36.0772 20.52 37.5972 20.2667C39.1172 20.0133 40.5528 20.14 41.9039 20.6467C43.255 21.1533 44.3528 21.9133 45.1972 22.9267C45.2817 23.0111 45.3661 23.0533 45.4505 23.0533C45.7883 23.2222 46.0839 23.4756 46.3372 23.8133C46.9283 24.5733 47.2239 25.5867 47.2239 26.8533V30.2733C46.8861 30.1889 46.5483 30.1467 46.2105 30.1467V28.2467C46.2105 28.0778 46.1261 27.9089 45.9572 27.74C45.7883 27.5711 45.6194 27.4444 45.4505 27.36C44.6905 27.36 44.0994 26.98 43.6772 26.22C43.5083 25.8822 43.255 25.6922 42.9172 25.65C42.5794 25.6078 42.2839 25.7133 42.0305 25.9667C40.8483 26.8956 39.5394 27.4867 38.1039 27.74C37.0061 27.9933 35.8661 28.0356 34.6839 27.8667C33.9239 27.7822 33.2483 27.9511 32.6572 28.3733C32.0661 28.7956 31.7283 29.3867 31.6439 30.1467C31.2217 30.1467 30.8417 30.1889 30.5039 30.2733V29.64C30.5039 28.4578 30.5461 27.5711 30.6305 26.98C30.8839 25.8822 31.3061 24.8689 31.8972 23.94C31.9817 23.7711 32.0028 23.6233 31.9605 23.4967C31.9183 23.37 31.8339 23.2644 31.7072 23.18C31.5805 23.0956 31.4539 23.0744 31.3272 23.1167C31.2005 23.1589 31.095 23.2222 31.0105 23.3067C30.2505 24.4044 29.7861 25.5867 29.6172 26.8533C29.4483 27.6133 29.4061 28.6267 29.4905 29.8933L29.3639 31.2867C29.0261 32.0467 29.1105 32.7433 29.6172 33.3767C30.1239 34.01 30.7994 34.3267 31.6439 34.3267C31.8128 35.9311 32.4461 37.3244 33.5439 38.5067L33.6705 38.6333C34.1772 39.14 34.7261 39.5622 35.3172 39.9V40.9133L33.9239 41.8L30.8839 42.94C29.6172 43.3622 28.8994 43.6156 28.7305 43.7L28.6039 43.8267C27.7594 44.3333 27.2105 45.0511 26.9572 45.98L25.3105 54.34C25.3105 54.5933 25.3105 54.8467 25.3105 55.1C25.395 55.6911 25.6272 56.1556 26.0072 56.4933C26.3872 56.8311 26.915 57 27.5905 57H42.9172C43.0861 57 43.2128 56.9367 43.2972 56.81C43.3817 56.6833 43.4239 56.5567 43.4239 56.43C43.4239 56.3033 43.3817 56.1767 43.2972 56.05C43.2128 55.9233 43.0861 55.86 42.9172 55.86H31.5172V50.7933C31.5172 50.6244 31.4539 50.4978 31.3272 50.4133C31.2005 50.3289 31.0739 50.2867 30.9472 50.2867C30.8205 50.2867 30.6939 50.3289 30.5672 50.4133C30.4405 50.4978 30.3772 50.6244 30.3772 50.7933V55.86H27.5905C26.6617 55.86 26.2817 55.4378 26.4505 54.5933L27.7172 48.0067C27.9705 46.8244 28.1394 46.1489 28.2239 45.98V45.8533C28.4772 45.2622 28.9417 44.7978 29.6172 44.46L32.0239 43.7L33.4172 46.1067C33.4172 46.2756 33.5017 46.3811 33.6705 46.4233C33.8394 46.4656 33.9872 46.4444 34.1139 46.36C34.2405 46.2756 34.325 46.17 34.3672 46.0433C34.4094 45.9167 34.3883 45.7689 34.3039 45.6L33.0372 43.32L33.9239 43.0667L38.3572 51.3C38.5261 51.4689 38.7372 51.5533 38.9905 51.5533C39.2439 51.5533 39.4128 51.4689 39.4972 51.3L44.0572 43.0667L44.9439 43.32L40.3839 51.68C40.0461 52.1867 39.5817 52.44 38.9905 52.44C38.3994 52.44 37.935 52.1867 37.5972 51.68L35.5705 47.88C35.4861 47.7956 35.3805 47.7322 35.2539 47.69C35.1272 47.6478 34.9794 47.6478 34.8105 47.69C34.6417 47.7322 34.5361 47.8378 34.4939 48.0067C34.4517 48.1756 34.4728 48.3022 34.5572 48.3867L36.5839 52.1867C36.9217 52.7778 37.4072 53.1789 38.0405 53.39C38.6739 53.6011 39.3072 53.6011 39.9405 53.39C40.5739 53.1789 41.0594 52.7778 41.3972 52.1867L45.9572 43.7L48.1105 44.46L48.9972 44.84C49.4194 45.2622 49.715 45.7267 49.8839 46.2333L51.5305 54.8467C51.615 55.5222 51.235 55.86 50.3905 55.86H47.6039V50.7933C47.6039 50.6244 47.5405 50.4978 47.4139 50.4133C47.2872 50.3289 47.1605 50.2867 47.0339 50.2867C46.9072 50.2867 46.7805 50.3289 46.6539 50.4133C46.5272 50.4978 46.4639 50.6244 46.4639 50.7933V55.86H45.4505C45.2817 55.86 45.155 55.9233 45.0705 56.05C44.9861 56.1767 44.9439 56.3033 44.9439 56.43C44.9439 56.5567 44.9861 56.6833 45.0705 56.81C45.155 56.9367 45.2817 57 45.4505 57H50.3905C51.0661 57 51.5939 56.8311 51.9739 56.4933C52.3539 56.1556 52.5861 55.6911 52.6705 55.1C52.6705 54.8467 52.6705 54.5933 52.6705 54.34ZM46.2105 31.2867C46.5483 31.2022 46.8439 31.2656 47.0972 31.4767C47.3505 31.6878 47.4772 31.9411 47.4772 32.2367C47.4772 32.5322 47.3505 32.7644 47.0972 32.9333C46.8439 33.1022 46.5483 33.1867 46.2105 33.1867V31.2867ZM31.5172 33.1867C31.1794 33.1867 30.905 33.1022 30.6939 32.9333C30.4828 32.7644 30.3772 32.5322 30.3772 32.2367C30.3772 31.9411 30.4828 31.6878 30.6939 31.4767C30.905 31.2656 31.1794 31.2022 31.5172 31.2867V33.1867ZM34.5572 29.0067C35.9083 29.1756 37.175 29.1333 38.3572 28.88C39.9617 28.5422 41.3972 27.8244 42.6639 26.7267C43.255 27.74 44.0572 28.3311 45.0705 28.5V30.5267L44.4372 30.9067C44.1839 30.4844 43.8039 30.2733 43.2972 30.2733H40.7639C40.4261 30.2733 40.1517 30.3367 39.9405 30.4633C39.7294 30.59 39.5394 30.8222 39.3705 31.16H38.3572C38.2728 30.8222 38.1039 30.59 37.8505 30.4633C37.5972 30.3367 37.3439 30.2733 37.0905 30.2733H34.4305C33.9239 30.2733 33.5439 30.4844 33.2905 30.9067L32.6572 30.5267C32.6572 30.02 32.8472 29.6189 33.2272 29.3233C33.6072 29.0278 34.0505 28.9222 34.5572 29.0067ZM43.6772 31.6667V32.8067C43.6772 33.06 43.5928 33.2711 43.4239 33.44C43.255 33.6089 43.0439 33.6933 42.7905 33.6933H41.2705C41.0172 33.6933 40.8061 33.6089 40.6372 33.44C40.4683 33.2711 40.3839 33.06 40.3839 32.8067V31.6667C40.3839 31.4133 40.5105 31.2867 40.7639 31.2867H43.2972C43.5505 31.2867 43.6772 31.4133 43.6772 31.6667ZM37.3439 31.6667V32.8067C37.3439 33.06 37.2594 33.2711 37.0905 33.44C36.9217 33.6089 36.7105 33.6933 36.4572 33.6933H35.0639C34.8105 33.6933 34.5994 33.6089 34.4305 33.44C34.2617 33.2711 34.1772 33.06 34.1772 32.8067V31.6667C34.1772 31.4133 34.2617 31.2867 34.4305 31.2867H37.0905C37.2594 31.2867 37.3439 31.4133 37.3439 31.6667ZM34.1772 37.62C33.5017 36.7756 33.0372 35.8889 32.7839 34.96C32.6994 34.3689 32.6572 33.5667 32.6572 32.5533V31.7933L33.0372 32.0467V32.8067C33.0372 33.3133 33.2272 33.7567 33.6072 34.1367C33.9872 34.5167 34.4728 34.7067 35.0639 34.7067H36.4572C37.0483 34.7067 37.5339 34.5167 37.9139 34.1367C38.2939 33.7567 38.4839 33.3133 38.4839 32.8067V32.1733H39.2439V32.8067C39.2439 33.3133 39.455 33.7567 39.8772 34.1367C40.2994 34.5167 40.7639 34.7067 41.2705 34.7067H42.7905C43.2972 34.7067 43.7405 34.5167 44.1205 34.1367C44.5005 33.7567 44.6905 33.3133 44.6905 32.8067V32.0467L45.0705 31.7933V33.44C45.0705 35.1289 44.4794 36.5856 43.2972 37.81C42.115 39.0344 40.6372 39.6889 38.8639 39.7733C38.4417 39.7733 38.0194 39.7311 37.5972 39.6467L37.2172 39.52C36.035 39.1822 35.0217 38.5489 34.1772 37.62ZM38.9905 43.8267L36.4572 40.9133V40.4067C37.6394 40.8289 38.8217 40.9556 40.0039 40.7867L40.7639 40.5333L41.5239 40.4067V40.9133L38.9905 43.8267ZM39.6239 45.7267L39.3705 46.2333H38.6105L38.3572 45.7267L38.9905 45.3467L39.6239 45.7267ZM37.4705 47.2467L37.2172 46.6133L37.4705 46.4867L37.7239 46.8667L37.4705 47.2467ZM36.5839 45.6L34.9372 42.56L35.8239 41.9267L38.1039 44.5867L36.5839 45.6ZM38.9905 50.0333L38.2305 48.64L38.6105 47.3733H39.3705L39.7505 48.64L38.9905 50.0333ZM40.5105 47.2467L40.2572 46.8667L40.5105 46.4867L40.7639 46.6133L40.5105 47.2467ZM41.3972 45.6C40.975 45.3467 40.4683 45.0089 39.8772 44.5867L42.1572 41.9267L43.0439 42.56L41.3972 45.6Z" fill="#0E2A46"/>
</svg>
