<svg width="78" height="78" viewBox="0 0 78 78" fill="none" xmlns="http://www.w3.org/2000/svg">
<rect width="78" height="78" rx="39" fill="white"/>
<path d="M57.2309 39.5199L52.0376 30.3999C51.8687 30.1466 51.6787 29.9988 51.4676 29.9566C51.2565 29.9144 51.0665 29.9355 50.8976 30.0199L48.9976 31.1599V24.0666L45.1976 19.7599L44.9443 19.6333H30.1243C29.7865 19.6333 29.512 19.7388 29.3009 19.9499C29.0898 20.161 28.9843 20.3932 28.9843 20.6466V32.4266L27.0843 31.2866C26.9154 31.2021 26.7254 31.181 26.5143 31.2233C26.3031 31.2655 26.1131 31.371 25.9443 31.5399L20.7509 40.7866C20.582 40.9555 20.5398 41.1666 20.6243 41.4199C20.7087 41.6733 20.8354 41.8421 21.0043 41.9266L25.3109 44.4599C25.9865 45.051 26.5776 45.7266 27.0843 46.4866L25.6909 49.0199C25.4376 49.4421 25.332 49.9066 25.3743 50.4133C25.4165 50.9199 25.6065 51.3421 25.9443 51.6799C26.282 52.0177 26.6831 52.2288 27.1476 52.3133C27.612 52.3977 28.0976 52.3555 28.6043 52.1866C28.7731 52.7777 29.1743 53.221 29.8076 53.5166C30.4409 53.8121 31.0531 53.791 31.6443 53.4533C31.8131 54.0444 32.172 54.4666 32.7209 54.7199C33.2698 54.9733 33.7976 55.0577 34.3043 54.9733C34.5576 54.8888 34.8109 54.7621 35.0643 54.5933C35.2331 55.0155 35.5076 55.3533 35.8876 55.6066C36.2676 55.8599 36.6687 55.9866 37.0909 55.9866C37.9354 55.9866 38.5687 55.6066 38.9909 54.8466L41.0176 56.1133C41.4398 56.3666 41.9043 56.4721 42.4109 56.4299C42.9176 56.3877 43.382 56.1977 43.8043 55.8599C44.2265 55.5221 44.522 55.121 44.6909 54.6566C44.8598 54.1921 44.8598 53.7066 44.6909 53.1999V52.9466H44.9443C45.6198 52.7777 46.1265 52.3766 46.4643 51.7433C46.802 51.1099 46.8865 50.4555 46.7176 49.7799L46.5909 49.6533C47.3509 49.4844 47.942 49.0621 48.3643 48.3866C48.7865 47.711 48.8709 46.9933 48.6176 46.2333C49.3776 46.0644 49.9265 45.6421 50.2643 44.9666L50.5176 44.7133C50.7709 44.5444 51.1087 44.2699 51.5309 43.8899C51.9531 43.5099 52.2065 43.3199 52.2909 43.3199C52.3754 43.3199 52.4598 43.2777 52.5443 43.1933L56.9776 40.6599C57.1465 40.5755 57.2731 40.4277 57.3576 40.2166C57.442 40.0055 57.3998 39.7733 57.2309 39.5199ZM45.4509 21.6599L47.0976 23.4333H45.4509V21.6599ZM30.1243 20.7733H44.1843V24.0666C44.1843 24.2355 44.2476 24.3833 44.3743 24.5099C44.5009 24.6366 44.6487 24.6999 44.8176 24.6999H47.8576V31.7933L46.5909 32.5533C45.3243 32.4688 43.9731 32.5533 42.5376 32.8066C40.9331 32.9755 39.6243 33.3133 38.6109 33.8199L37.9776 34.0733C37.6398 34.1577 37.3443 34.2844 37.0909 34.4533C34.9798 33.6933 33.0798 33.4399 31.3909 33.6933L30.1243 33.0599V20.7733ZM25.4376 43.0666L21.8909 41.0399L26.8309 32.5533L30.3776 34.5799L25.4376 43.0666ZM28.7309 50.2866L28.4776 50.6666C28.3931 50.9199 28.2031 51.0888 27.9076 51.1733C27.612 51.2577 27.3376 51.2155 27.0843 51.0466C26.8309 50.8777 26.662 50.6666 26.5776 50.4133C26.4931 50.1599 26.5354 49.9066 26.7043 49.6533L28.8576 45.8533C28.942 45.5999 29.132 45.431 29.4276 45.3466C29.7231 45.2621 29.9976 45.3044 30.2509 45.4733C30.5043 45.6421 30.6731 45.8744 30.7576 46.1699C30.842 46.4655 30.7998 46.7399 30.6309 46.9933L28.7309 50.2866ZM31.7709 51.6799L31.6443 51.9333C31.4754 52.1866 31.2431 52.3555 30.9476 52.4399C30.652 52.5244 30.3776 52.5033 30.1243 52.3766C29.8709 52.2499 29.702 52.0388 29.6176 51.7433C29.5331 51.4477 29.5754 51.1733 29.7443 50.9199L31.6443 47.4999C31.8131 47.2466 32.0454 47.0988 32.3409 47.0566C32.6365 47.0144 32.9109 47.0566 33.1643 47.1833C33.4176 47.3099 33.5865 47.521 33.6709 47.8166C33.7554 48.1121 33.7131 48.3866 33.5443 48.6399L31.7709 51.6799ZM34.6843 53.3266C34.5154 53.5799 34.3043 53.7488 34.0509 53.8333C33.7976 53.9177 33.5231 53.8755 33.2276 53.7066C32.932 53.5377 32.7631 53.3055 32.7209 53.0099C32.6787 52.7144 32.6998 52.4399 32.7843 52.1866L34.5576 49.2733C34.7265 49.0199 34.9587 48.851 35.2543 48.7666C35.5498 48.6821 35.8243 48.7033 36.0776 48.8299C36.3309 48.9566 36.4787 49.1677 36.5209 49.4633C36.5631 49.7588 36.542 50.0333 36.4576 50.2866L35.0643 52.5666L34.6843 53.3266ZM36.5843 54.5933C36.3309 54.4244 36.162 54.2133 36.0776 53.9599C35.9931 53.7066 35.9931 53.4533 36.0776 53.1999L37.4709 50.9199C37.6398 50.6666 37.8509 50.4977 38.1043 50.4133C38.3576 50.3288 38.6109 50.3499 38.8643 50.4766C39.1176 50.6033 39.2865 50.8144 39.3709 51.1099C39.4554 51.4055 39.4131 51.6799 39.2443 51.9333L37.9776 54.2133C37.8087 54.4666 37.5976 54.6355 37.3443 54.7199C37.0909 54.8044 36.8376 54.7621 36.5843 54.5933ZM43.4243 54.5933C43.2554 54.8466 42.9809 55.0366 42.6009 55.1633C42.2209 55.2899 41.9043 55.2688 41.6509 55.0999L39.6243 53.8333L40.3843 52.5666C40.5531 52.1444 40.6376 51.7221 40.6376 51.2999L42.9176 52.6933C43.2554 52.8621 43.4665 53.1366 43.5509 53.5166C43.6354 53.8966 43.5931 54.2555 43.4243 54.5933ZM49.2509 44.4599C49.082 44.7977 48.8287 45.0088 48.4909 45.0933C48.1531 45.1777 47.8154 45.1355 47.4776 44.9666L42.5376 42.0533C42.2843 41.9688 42.0731 41.9688 41.9043 42.0533C41.7354 42.1377 41.6509 42.3066 41.6509 42.5599C41.6509 42.8133 41.7354 42.9821 41.9043 43.0666L46.8443 45.9799C47.182 46.1488 47.3931 46.4021 47.4776 46.7399C47.562 47.0777 47.5198 47.4155 47.3509 47.7533C47.182 48.091 46.9076 48.3021 46.5276 48.3866C46.1476 48.471 45.7887 48.4288 45.4509 48.2599L41.6509 46.1066C41.482 46.0221 41.292 46.0221 41.0809 46.1066C40.8698 46.191 40.7643 46.3599 40.7643 46.6133C40.7643 46.8666 40.8909 47.0355 41.1443 47.1199L44.9443 49.2733C45.1976 49.5266 45.3876 49.8221 45.5143 50.1599C45.6409 50.4977 45.5987 50.8355 45.3876 51.1733C45.1765 51.511 44.902 51.7221 44.5643 51.8066C44.2265 51.891 43.8887 51.8488 43.5509 51.6799L41.0176 50.1599C40.7643 50.0755 40.5109 50.1177 40.2576 50.2866C40.0043 49.8644 39.6454 49.5477 39.1809 49.3366C38.7165 49.1255 38.2309 49.1044 37.7243 49.2733V49.1466C37.5554 48.5555 37.1965 48.1121 36.6476 47.8166C36.0987 47.521 35.5287 47.4577 34.9376 47.6266H34.8109V47.4999C34.642 46.9088 34.2831 46.4655 33.7343 46.1699C33.1854 45.8744 32.6154 45.7688 32.0243 45.8533L31.8976 45.9799C31.8131 45.4733 31.602 45.0721 31.2643 44.7766C30.9265 44.481 30.5254 44.291 30.0609 44.2066C29.5965 44.1221 29.1531 44.1855 28.7309 44.3966C28.3087 44.6077 27.9709 44.9244 27.7176 45.3466C27.3798 44.7555 26.9576 44.2488 26.4509 43.8266L31.6443 34.8333C32.9954 34.6644 34.5576 34.8755 36.3309 35.4666L35.3176 39.1399C35.1487 39.6466 35.1065 40.1533 35.1909 40.6599C35.2754 41.1666 35.4865 41.6521 35.8243 42.1166C36.162 42.581 36.4998 42.8133 36.8376 42.8133C37.1754 42.8133 37.5131 42.5599 37.8509 42.0533L37.9776 41.9266C38.4843 41.251 38.9065 40.5333 39.2443 39.7733C39.8354 38.8444 40.2154 38.3377 40.3843 38.2533L41.1443 38.1266L48.7443 42.5599C49.082 42.7288 49.3143 43.0033 49.4409 43.3833C49.5676 43.7633 49.5043 44.1221 49.2509 44.4599ZM50.6443 43.1933C50.3909 42.4333 49.9687 41.8844 49.3776 41.5466L41.5243 36.9866C41.3554 36.9021 41.1865 36.8599 41.0176 36.8599L40.1309 37.1133C39.7931 37.1977 39.4976 37.4088 39.2443 37.7466C38.9909 38.0844 38.6531 38.591 38.2309 39.2666C37.8931 39.9421 37.4709 40.6177 36.9643 41.2933L36.8376 41.5466C36.5843 41.1244 36.4365 40.7655 36.3943 40.4699C36.352 40.1744 36.3731 39.8577 36.4576 39.5199L37.3443 36.0999C37.4287 35.931 37.5131 35.7621 37.5976 35.5933H37.7243C37.8931 35.4244 38.062 35.2977 38.2309 35.2133L39.1176 34.9599C40.0465 34.4533 41.2709 34.1155 42.7909 33.9466C44.0576 33.7777 45.282 33.6933 46.4643 33.6933L51.4043 42.4333L50.6443 43.1933ZM52.5443 41.9266L47.6043 33.3133L51.1509 31.2866L56.0909 39.8999L52.5443 41.9266ZM35.5709 30.6533C35.7398 30.6533 35.8665 30.5899 35.9509 30.4633C36.0354 30.3366 36.0776 30.1888 36.0776 30.0199V26.0933C36.0776 25.9244 36.0354 25.7766 35.9509 25.6499C35.8665 25.5233 35.7398 25.4599 35.5709 25.4599H31.5176C31.3487 25.4599 31.222 25.5233 31.1376 25.6499C31.0531 25.7766 31.0109 25.9244 31.0109 26.0933V30.0199C31.0109 30.1888 31.0531 30.3366 31.1376 30.4633C31.222 30.5899 31.3487 30.6533 31.5176 30.6533H35.5709ZM32.1509 26.5999H34.9376V29.3866H32.1509V26.5999ZM34.6843 27.8666L33.7976 29.0066C33.6287 29.091 33.4598 29.1333 33.2909 29.1333C33.122 29.1333 32.9954 29.091 32.9109 29.0066L32.4043 28.4999C32.3198 28.4155 32.2776 28.2888 32.2776 28.1199C32.2776 27.951 32.3409 27.8033 32.4676 27.6766C32.5943 27.5499 32.742 27.4866 32.9109 27.4866C33.0798 27.4866 33.2065 27.5288 33.2909 27.6133V27.7399L33.7976 27.1066C33.9665 26.9377 34.1565 26.8744 34.3676 26.9166C34.5787 26.9588 34.7265 27.0855 34.8109 27.2966C34.8954 27.5077 34.8531 27.6977 34.6843 27.8666ZM37.8509 30.2733C37.8509 30.1044 37.9143 29.9566 38.0409 29.8299C38.1676 29.7033 38.3154 29.6399 38.4843 29.6399H46.4643C46.6331 29.6399 46.7598 29.7033 46.8443 29.8299C46.9287 29.9566 46.9709 30.1044 46.9709 30.2733C46.9709 30.4421 46.9287 30.5899 46.8443 30.7166C46.7598 30.8433 46.6331 30.9066 46.4643 30.9066H38.4843C38.3154 30.9066 38.1676 30.8433 38.0409 30.7166C37.9143 30.5899 37.8509 30.4421 37.8509 30.2733ZM37.8509 26.0933C37.8509 25.9244 37.9143 25.7766 38.0409 25.6499C38.1676 25.5233 38.3154 25.4599 38.4843 25.4599H42.1576C42.3265 25.4599 42.4743 25.5233 42.6009 25.6499C42.7276 25.7766 42.7909 25.9244 42.7909 26.0933C42.7909 26.2621 42.7276 26.3888 42.6009 26.4733C42.4743 26.5577 42.3265 26.5999 42.1576 26.5999H38.4843C38.3154 26.5999 38.1676 26.5577 38.0409 26.4733C37.9143 26.3888 37.8509 26.2621 37.8509 26.0933ZM37.8509 28.1199C37.8509 27.951 37.9143 27.8244 38.0409 27.7399C38.1676 27.6555 38.3154 27.6133 38.4843 27.6133H43.6776C43.8465 27.6133 43.9943 27.6555 44.1209 27.7399C44.2476 27.8244 44.3109 27.951 44.3109 28.1199C44.3109 28.2888 44.2476 28.4366 44.1209 28.5633C43.9943 28.6899 43.8465 28.7533 43.6776 28.7533H38.4843C38.3154 28.7533 38.1676 28.6899 38.0409 28.5633C37.9143 28.4366 37.8509 28.2888 37.8509 28.1199Z" fill="#0E2A46"/>
</svg>
