<svg width="70" height="71" viewBox="0 0 70 71" fill="none" xmlns="http://www.w3.org/2000/svg">
<rect y="0.5" width="70" height="70" rx="35" fill="white" fill-opacity="0.05"/>
<rect x="0.5" y="1" width="69" height="69" rx="34.5" stroke="#F4F4F4" stroke-opacity="0.5"/>
<path d="M34.1283 47.1367C33.3471 45.9974 32.4519 44.7116 31.4428 43.2793C30.4662 41.847 29.7663 40.8379 29.3432 40.252C28.92 39.666 28.4317 38.9499 27.8783 38.1035C27.3249 37.2246 26.9506 36.6061 26.7553 36.248C26.5925 35.89 26.3972 35.4342 26.1693 34.8809C25.974 34.3275 25.8438 33.8555 25.7787 33.4648C25.7462 33.0417 25.7299 32.5534 25.7299 32C25.7299 29.3958 26.6413 27.1823 28.4643 25.3594C30.2872 23.5365 32.5007 22.625 35.1049 22.625C37.709 22.625 39.9226 23.5365 41.7455 25.3594C43.5684 27.1823 44.4799 29.3958 44.4799 32C44.4799 32.5534 44.4473 33.0417 44.3822 33.4648C44.3497 33.8555 44.2195 34.3275 43.9916 34.8809C43.7963 35.4342 43.601 35.89 43.4057 36.248C43.2429 36.6061 42.8848 37.2246 42.3314 38.1035C41.7781 38.9499 41.2898 39.666 40.8666 40.252C40.4434 40.8379 39.7273 41.847 38.7182 43.2793C37.7416 44.7116 36.8627 45.9974 36.0814 47.1367C35.8536 47.4622 35.5281 47.625 35.1049 47.625C34.6817 47.625 34.3562 47.4622 34.1283 47.1367ZM32.3217 34.7832C33.1029 35.5319 34.0307 35.9062 35.1049 35.9062C36.1791 35.9062 37.0906 35.5319 37.8393 34.7832C38.6205 34.002 39.0111 33.0742 39.0111 32C39.0111 30.9258 38.6205 30.0143 37.8393 29.2656C37.0906 28.4844 36.1791 28.0938 35.1049 28.0938C34.0307 28.0938 33.1029 28.4844 32.3217 29.2656C31.573 30.0143 31.1986 30.9258 31.1986 32C31.1986 33.0742 31.573 34.002 32.3217 34.7832Z" fill="white"/>
</svg>
