<svg width="105" height="43" viewBox="0 0 105 43" fill="none" xmlns="http://www.w3.org/2000/svg">
<rect x="0.625" width="103.75" height="43" rx="13" fill="#A5C4DB"/>
<path d="M62.8011 19C63.2578 21.2413 62.9323 23.5714 61.879 25.6018C60.8256 27.6322 59.108 29.24 57.0126 30.1573C54.9172 31.0746 52.5707 31.2458 50.3644 30.6424C48.1581 30.039 46.2253 28.6974 44.8884 26.8414C43.5515 24.9854 42.8912 22.7272 43.0178 20.4434C43.1443 18.1595 44.05 15.9881 45.5838 14.2912C47.1175 12.5942 49.1867 11.4744 51.4462 11.1185C53.7056 10.7625 56.0189 11.1919 58.0001 12.335" stroke="black" stroke-width="2" stroke-linecap="round" stroke-linejoin="round"/>
<path d="M50 20L53 23L63 13" stroke="black" stroke-width="2" stroke-linecap="round" stroke-linejoin="round"/>
</svg>
