<svg width="90" height="57" viewBox="0 0 90 57" fill="none" xmlns="http://www.w3.org/2000/svg">
<path d="M90 28.5C90 44.2401 77.2401 57 61.5 57C45.7599 57 0 44.2401 0 28.5C0 12.7599 45.7599 0 61.5 0C77.2401 0 90 12.7599 90 28.5Z" fill="#258CDB"/>
<path d="M62 38C67.5228 38 72 33.5228 72 28C72 22.4772 67.5228 18 62 18C56.4772 18 52 22.4772 52 28C52 33.5228 56.4772 38 62 38Z" stroke="black" stroke-width="2" stroke-linecap="round" stroke-linejoin="round"/>
<path d="M60 24L64 28L60 32" stroke="black" stroke-width="2" stroke-linecap="round" stroke-linejoin="round"/>
</svg>
