<svg width="70" height="71" viewBox="0 0 70 71" fill="none" xmlns="http://www.w3.org/2000/svg">
<rect y="0.5" width="70" height="70" rx="35" fill="white" fill-opacity="0.05"/>
<rect x="0.5" y="1" width="69" height="69" rx="34.5" stroke="#F4F4F4" stroke-opacity="0.5"/>
<path d="M46.3575 46.5207C46.2381 47.1413 45.8692 47.4571 45.2508 47.4679C39.0018 47.577 33.6254 45.4569 29.1217 41.1078C24.6181 36.7586 22.3117 31.4595 22.2026 25.2105C22.1918 24.5921 22.4945 24.2124 23.1106 24.0714L28.1675 22.8111C28.783 22.6376 29.2264 22.8577 29.4976 23.4716L31.9364 28.8986C32.1733 29.4154 32.0674 29.873 31.6185 30.2715L28.7311 32.7149C29.6433 34.6198 30.8609 36.2915 32.3836 37.73C33.9069 39.201 35.6201 40.3595 37.5231 41.2053L39.9131 38.2334C40.2631 37.7715 40.7168 37.6497 41.2741 37.8678L46.7829 40.1158C47.3733 40.3659 47.5925 40.8016 47.4406 41.4229L46.3575 46.5207Z" fill="white"/>
</svg>
