<svg width="45" height="45" viewBox="0 0 45 45" fill="none" xmlns="http://www.w3.org/2000/svg">
<rect width="45" height="45" rx="22.5" fill="#4D5756"/>
<path d="M23.0768 13.3574C26.1979 13.3574 29.0533 15.5156 29.0533 18.8027C29.0533 21.8906 27.4596 25.3438 23.94 25.3438C23.0768 25.3438 22.0475 24.9121 21.6158 24.1484C20.8854 27.1367 20.9186 27.6016 19.2584 29.8926C19.0924 29.959 19.1256 29.959 19.026 29.8262C18.9596 29.1953 18.8932 28.5977 18.8932 27.9668C18.8932 25.9414 19.8229 22.9863 20.2877 21.0273C20.0221 20.4961 19.9557 19.8984 19.9557 19.334C19.9557 16.6777 23.0768 16.2793 23.0768 18.4707C23.0768 19.7656 22.1803 20.9941 22.1803 22.2559C22.1803 23.0859 22.9107 23.6836 23.7408 23.6836C26.0318 23.6836 26.7291 20.3965 26.7291 18.6367C26.7291 16.2793 25.0689 14.9844 22.7779 14.9844C20.1549 14.9844 18.1295 16.877 18.1295 19.5332C18.1295 20.8281 18.9264 21.4922 18.9264 21.791C18.9264 22.0566 18.7271 22.9531 18.3951 22.9531C17.5982 22.9531 16.3033 21.625 16.3033 19.3008C16.3033 15.6152 19.6568 13.3574 23.0768 13.3574Z" fill="#00BEAE"/>
<a href="https://www.figma.com/design/Nx4sNsAeWJfmVVOXuDSmxJ?node-id=2-2093">
<rect fill="black" fill-opacity="0" x="0.173438" y="-1.275" width="12.75" height="19.55"/>
</a>
</svg>
