<svg width="1159" height="929" viewBox="0 0 1159 929" fill="none" xmlns="http://www.w3.org/2000/svg">
  <defs>
    <!-- Define a linear gradient -->
    <linearGradient id="gradientFill" x1="0" y1="0" x2="1" y2="1" gradientUnits="objectBoundingBox">
      <stop offset="0%" stop-color="#556E81" />
      <stop offset="100%" stop-color="#89A7B4" />
    </linearGradient>
  </defs>
  <path d="M1131.15 550.581C1098.1 638.917 1026.89 735.764 922.07 767.284C763.722 814.941 749.514 929.46 462.19 928.682C420.232 928.733 378.392 924.771 337.403 916.865C317.363 912.936 297.628 907.885 278.316 901.743C108.063 847.583 14.8522 718.784 1.50141 581.149C-16.0139 400.114 123.667 308.796 214.624 254.939C305.581 201.082 409.448 1.20804 691.995 0.0198535C735.127 -0.321126 778.159 3.73113 820.236 12.0961C916.166 31.5391 1014.89 78.3535 1074.2 149.709C1078.63 155.067 1082.89 160.511 1087.01 166.171C1167.09 275.981 1176.22 430.12 1131.15 550.581Z" fill="url(#gradientFill)" />
</svg>
