<svg width="986" height="779" viewBox="0 0 986 779" fill="none" xmlns="http://www.w3.org/2000/svg">
<path d="M958.151 456.581C925.104 544.917 853.892 641.764 749.07 673.284C590.722 720.941 576.514 835.46 289.19 834.682C247.232 834.733 205.392 830.771 164.403 822.865C144.363 818.936 124.628 813.885 105.316 807.743C-64.9371 753.583 -158.148 624.784 -171.499 487.149C-189.014 306.114 -49.3326 214.796 41.6243 160.939C132.581 107.082 236.448 -92.792 518.995 -93.9801C562.127 -94.3211 605.159 -90.2689 647.236 -81.9039C743.166 -62.4609 841.888 -15.6465 901.195 55.7093C905.629 61.0669 909.892 66.511 914.007 72.171C994.088 181.981 1003.22 336.12 958.151 456.581Z" fill="#0C3E64"/>
<path opacity="0.7" d="M958.151 456.581C925.104 544.917 853.892 641.764 749.07 673.284C590.722 720.941 576.514 835.46 289.19 834.682C247.232 834.733 205.392 830.771 164.403 822.865C144.363 818.936 124.628 813.885 105.316 807.743C-64.9371 753.583 -158.148 624.784 -171.499 487.149C-189.014 306.114 -49.3326 214.796 41.6243 160.939C132.581 107.082 236.448 -92.792 518.995 -93.9801C562.127 -94.3211 605.159 -90.2689 647.236 -81.9039C743.166 -62.4609 841.888 -15.6465 901.195 55.7093C905.629 61.0669 909.892 66.511 914.007 72.171C994.088 181.981 1003.22 336.12 958.151 456.581Z" fill="white"/>
</svg>
