<svg width="58" height="58" viewBox="0 0 58 58" fill="none" xmlns="http://www.w3.org/2000/svg">
<rect width="58" height="58" rx="29" fill="#0C3E64"/>
<path d="M36.358 36.1539L32.4851 32.3431C33.4993 31.2412 34.1225 29.784 34.1225 28.1805C34.122 24.7503 31.2966 21.97 27.811 21.97C24.3254 21.97 21.5 24.7503 21.5 28.1805C21.5 31.6107 24.3254 34.391 27.811 34.391C29.317 34.391 30.6983 33.8701 31.7833 33.0041L35.6711 36.83C35.8605 37.0167 36.1681 37.0167 36.3575 36.83C36.5474 36.6434 36.5474 36.3406 36.358 36.1539ZM27.811 33.4355C24.8618 33.4355 22.471 31.0828 22.471 28.1805C22.471 25.2783 24.8618 22.9255 27.811 22.9255C30.7602 22.9255 33.1509 25.2783 33.1509 28.1805C33.1509 31.0828 30.7602 33.4355 27.811 33.4355Z" fill="white"/>
</svg>
