<svg width="179" height="182" viewBox="0 0 179 182" fill="none" xmlns="http://www.w3.org/2000/svg">
<g clip-path="url(#clip0_453_4827)">
<path d="M96.074 19.089C102.291 34.6319 122.636 32.2929 136.442 28.9731C139.753 28.1432 143.143 27.2377 146.131 25.6533C149.118 24.0688 151.621 21.5035 152.59 18.41C153.639 14.9392 152.428 11.0913 150.329 8.07322C148.391 5.28154 145.566 2.33895 142.578 0.528131C141.286 3.62162 136.685 3.84797 133.536 3.84797C129.095 3.84797 125.058 2.2635 120.941 1.13174C116.743 -2.54214e-05 112.221 -0.226378 108.023 0.829934C99.5457 2.71621 92.7638 10.7894 96.074 19.089Z" fill="black"/>
<path d="M108.75 123.136C108.507 123.136 108.427 123.136 108.265 123.211L108.75 123.136Z" fill="black"/>
<path d="M108.75 123.136C108.507 123.136 108.427 123.136 108.265 123.211L108.75 123.136Z" fill="black"/>
<path d="M90.8262 47.4586V32.8966C90.8262 20.5226 103.179 10.4122 118.277 10.4122C125.785 10.4122 132.648 12.9021 137.653 16.9765C142.659 21.0508 145.727 26.6342 145.727 32.8211V47.3832" stroke="black" stroke-width="2" stroke-miterlimit="10"/>
<path d="M145.727 63.2278V80.0533C145.727 92.4273 133.374 102.538 118.277 102.538C103.179 102.538 90.8262 92.4273 90.8262 80.0533V63.2278" stroke="black" stroke-width="2" stroke-miterlimit="10"/>
<path d="M101.968 68.4339C109.682 68.4339 115.935 62.5899 115.935 55.3809C115.935 48.1719 109.682 42.3279 101.968 42.3279C94.2537 42.3279 88.0002 48.1719 88.0002 55.3809C88.0002 62.5899 94.2537 68.4339 101.968 68.4339Z" stroke="black" stroke-width="2" stroke-miterlimit="10"/>
<path d="M134.505 68.4339C142.219 68.4339 148.472 62.5899 148.472 55.3809C148.472 48.1719 142.219 42.3279 134.505 42.3279C126.791 42.3279 120.537 48.1719 120.537 55.3809C120.537 62.5899 126.791 68.4339 134.505 68.4339Z" stroke="black" stroke-width="2" stroke-miterlimit="10"/>
<path d="M115.854 55.0037H120.699" stroke="black" stroke-width="4" stroke-miterlimit="10"/>
<path d="M129.499 100.501H129.58V124.117" stroke="black" stroke-width="2" stroke-miterlimit="10"/>
<path d="M109.396 123.815V101.104" stroke="black" stroke-width="2" stroke-miterlimit="10"/>
<path d="M101.968 58.399C103.751 58.399 105.197 57.0478 105.197 55.3809C105.197 53.7141 103.751 52.3629 101.968 52.3629C100.184 52.3629 98.7383 53.7141 98.7383 55.3809C98.7383 57.0478 100.184 58.399 101.968 58.399Z" fill="black"/>
<path d="M134.505 58.399C136.288 58.399 137.734 57.0478 137.734 55.3809C137.734 53.7141 136.288 52.3629 134.505 52.3629C132.721 52.3629 131.275 53.7141 131.275 55.3809C131.275 57.0478 132.721 58.399 134.505 58.399Z" fill="black"/>
<path d="M88.9692 60.2853H87.3544C85.5782 60.2853 83.9635 60.9643 82.7524 62.0206C81.6221 63.1524 80.8955 64.6614 80.8955 66.3213C80.8955 69.6412 83.802 72.3574 87.3544 72.3574H90.5839" stroke="black" stroke-width="2" stroke-miterlimit="10"/>
<path d="M147.503 60.2853H149.118C152.67 60.2853 155.577 63.0015 155.577 66.3213C155.577 67.9813 154.85 69.4903 153.639 70.622C152.509 71.6784 150.894 72.3574 149.118 72.3574H145.888" stroke="black" stroke-width="2" stroke-miterlimit="10"/>
<path d="M90.6645 64.5105V68.1321H88.081C87.0314 68.1321 86.1433 67.3022 86.1433 66.3213C86.1433 65.7932 86.3855 65.3405 86.7085 65.0387C87.0314 64.7368 87.5158 64.5105 88.081 64.5105H90.6645Z" fill="black"/>
<path d="M145.888 68.1321V64.5105H148.472C149.522 64.5105 150.41 65.3405 150.41 66.3213C150.41 66.8495 150.167 67.3022 149.845 67.604C149.522 67.9058 149.037 68.1321 148.472 68.1321H145.888Z" fill="black"/>
<path d="M118.276 67.8303C118.276 67.8303 114.24 73.8664 120.699 72.3574" stroke="black" stroke-width="2" stroke-miterlimit="10" stroke-linecap="round"/>
<path d="M111.01 85.2595C111.01 85.2595 117.469 92.7292 126.35 85.2595" stroke="black" stroke-width="2" stroke-miterlimit="10" stroke-linecap="round"/>
<path d="M95.6704 39.9135C95.6704 39.9135 100.111 35.7637 107.781 39.159" stroke="black" stroke-width="3" stroke-miterlimit="10" stroke-linecap="round"/>
<path d="M140.883 39.9135C140.883 39.9135 136.442 35.7637 128.772 39.159" stroke="black" stroke-width="3" stroke-miterlimit="10" stroke-linecap="round"/>
<path d="M90.6647 31.3121C90.6647 31.3121 79.5231 23.2388 84.3673 13.4302C89.2115 3.6216 104.551 8.90316 104.551 8.90316C104.551 8.90316 110.687 33.3492 90.6647 31.3121Z" fill="black"/>
<path d="M35.2793 91.5979C34.3104 88.6554 32.9379 87.2218 32.2113 82.9211C30.6773 74.3197 31.2425 66.0956 27.4478 66.3974C25.9138 66.5483 25.4294 68.0573 25.5102 68.8872L26.7212 82.4684C26.2368 84.0529 25.3487 83.4493 25.3487 83.4493C25.3487 83.4493 22.2 71.3771 21.7963 69.189C21.3926 67.0764 20.2623 65.8692 18.7283 66.0201C16.064 66.2465 17.1136 69.2645 17.3558 70.3963L20.1816 85.0337C20.4238 86.4673 18.809 86.0146 18.809 86.0146L12.5116 71.3771C11.7849 69.7926 10.4124 70.1699 10.4124 70.1699C7.90959 70.6981 8.87843 72.8107 8.87843 72.8107L14.2878 88.3536C14.2878 88.429 14.2878 88.5045 14.2878 88.5799C14.3685 89.4099 13.2382 89.8626 12.7538 89.1081C11.0583 86.6936 7.74812 82.8456 5.00308 81.3366C3.63056 80.5821 2.66172 80.733 2.09656 81.1103C1.53141 81.4875 1.45067 82.1666 1.85435 82.6947L11.9464 96.3514C14.2878 110.838 23.734 112.573 23.734 112.573L29.3855 133.247L37.7014 165.842L38.751 169.991C39.7198 173.99 43.5951 176.857 47.9549 176.857H52.3954C55.5442 176.857 57.724 173.99 56.7552 171.274L36.6518 114.082L35.7637 109.103C37.7014 107.065 38.9932 102.765 39.6391 99.6712C40.0427 98.0113 40.2042 96.2759 40.0427 94.616C39.7198 90.4662 42.707 82.9965 42.707 82.9965C42.4648 81.563 39.5583 82.7702 39.5583 82.7702C36.3289 83.8265 35.5215 88.6554 35.2793 91.2961C35.1985 92.4279 34.6334 93.4088 33.826 94.1633C28.9818 98.6149 28.5782 103.595 28.5782 103.595" stroke="black" stroke-width="2" stroke-miterlimit="10"/>
<path d="M21.7155 69.2639C21.3118 67.1512 20.5852 65.5668 18.6475 66.0949C16.064 66.774 17.0328 69.3393 17.275 70.4711" stroke="black" stroke-width="2" stroke-miterlimit="10"/>
<path d="M178.829 181.007V181.761H161.228L157.515 162.521V181.761H81.2993V170.821C81.2993 168.18 81.2993 165.539 81.38 162.898C79.6846 164.181 77.8276 165.237 75.6477 166.369L58.7738 176.932C58.6931 177.008 58.6123 177.008 58.5316 177.083C57.805 177.46 56.9976 177.687 56.1095 177.687L52.6005 177.811C52.6005 177.811 56.3517 176.48 57.2398 173.16L51.1846 154.297C59.8234 147.582 73.7908 128.191 100.595 124.192C101.726 123.966 102.937 123.739 104.228 123.589C105.44 123.438 106.651 123.287 108.023 123.211L108.911 123.136V123.287L108.427 123.362C108.588 123.362 108.669 123.362 108.83 123.287H108.911C109.073 123.287 109.234 123.287 109.396 123.211H109.476L110.284 123.136V126.003C110.284 126.38 110.445 126.833 110.849 127.21C112.06 128.493 114.805 129.474 118.115 129.7C118.68 129.776 119.245 129.776 119.811 129.776C119.891 129.776 119.972 129.776 119.972 129.776H120.053C123.282 129.7 126.27 128.87 127.804 127.663C128.288 127.286 128.772 126.758 128.772 126.003V123.362L129.58 123.513H129.741C129.983 123.513 130.145 123.589 130.387 123.589V123.362L131.437 123.513C161.067 126.908 178.829 148.412 178.829 181.007Z" fill="black"/>
<path d="M58.6929 176.857L58.4507 177.008C58.5314 177.008 58.6122 176.932 58.6929 176.857Z" fill="black"/>
</g>
<defs>
<clipPath id="clip0_453_4827">
<rect width="178.105" height="181.761" fill="white" transform="translate(0.724121)"/>
</clipPath>
</defs>
</svg>
